<svg width="80" height="80" viewBox="0 0 80 80" fill="none" xmlns="http://www.w3.org/2000/svg">
<rect width="80" height="80" rx="5" fill="black"/>
<path d="M48.0898 65C49.0501 63.9266 49.681 62.5994 49.9071 61.177C50.1333 59.7546 49.9451 58.2972 49.365 56.9789C48.785 55.6606 47.8376 54.5373 46.6362 53.743C45.4347 52.9487 44.03 52.5172 42.5898 52.5" stroke="white" stroke-width="5" stroke-linecap="round" stroke-linejoin="round"/>
<path d="M50 60C50 58.0109 50.7902 56.1032 52.1967 54.6967C53.6032 53.2902 55.5109 52.5 57.5 52.5H60C61.3261 52.5 62.5979 51.9732 63.5355 51.0355C64.4732 50.0979 65 48.8261 65 47.5V42.5C65 39.8478 63.9464 37.3043 62.0711 35.4289C60.1957 33.5536 57.6522 32.5 55 32.5V20" stroke="white" stroke-width="5" stroke-linecap="round" stroke-linejoin="round"/>
<path d="M55 42.5H55.025" stroke="white" stroke-width="5" stroke-linecap="round" stroke-linejoin="round"/>
<path d="M55 25C52.3478 25 49.8043 26.0536 47.9289 27.9289C46.0536 29.8043 45 32.3478 45 35C40.3587 35 35.9075 36.8437 32.6256 40.1256C29.3437 43.4075 27.5 47.8587 27.5 52.5C27.5 40 37.5 40 37.5 26.25C37.5 24.7726 37.209 23.3097 36.6436 21.9448C36.0783 20.5799 35.2496 19.3397 34.205 18.295C33.1603 17.2504 31.9201 16.4217 30.5552 15.8564C29.1903 15.291 27.7274 15 26.25 15C24.7726 15 23.3097 15.291 21.9448 15.8564C20.5799 16.4217 19.3397 17.2504 18.295 18.295C17.2504 19.3397 16.4217 20.5799 15.8564 21.9448C15.291 23.3097 15 24.7726 15 26.25C15 27.9076 15.6585 29.4973 16.8306 30.6694C18.0027 31.8415 19.5924 32.5 21.25 32.5C22.9076 32.5 24.4973 31.8415 25.6694 30.6694C26.8415 29.4973 27.5 27.9076 27.5 26.25C27.5 35 17.5 37.5 17.5 52.5C17.5 59.5 23 65 30 65H55" stroke="white" stroke-width="5" stroke-linecap="round" stroke-linejoin="round"/>
</svg>
