<svg width="32" height="32" viewBox="0 0 32 32" fill="none" xmlns="http://www.w3.org/2000/svg">
<rect width="32" height="32" rx="2" fill="black"/>
<path d="M17.5 16L11.2142 22.285C11.0665 22.4328 10.8911 22.55 10.6981 22.63C10.505 22.71 10.2981 22.7512 10.0891 22.7513C9.66711 22.7513 9.26234 22.5837 8.96387 22.2854C8.66541 21.987 8.49769 21.5823 8.49762 21.1603C8.49755 20.7382 8.66513 20.3335 8.9635 20.035L15.25 13.75" stroke="white" stroke-width="1.5" stroke-linecap="round" stroke-linejoin="round"/>
<path d="M18.25 18.625C18.25 18.7245 18.2895 18.8198 18.3598 18.8902C18.4302 18.9605 18.5255 19 18.625 19C19.2652 19 19.8991 18.8739 20.4906 18.6289C21.082 18.3839 21.6195 18.0248 22.0721 17.5721C22.5248 17.1195 22.8839 16.582 23.1289 15.9906C23.3739 15.3991 23.5 14.7652 23.5 14.125C23.5 14.0255 23.4605 13.9302 23.3902 13.8598C23.3198 13.7895 23.2245 13.75 23.125 13.75H21.871C21.4732 13.7499 21.0917 13.5918 20.8105 13.3105L17.014 9.514C16.8445 9.34454 16.6147 9.24935 16.375 9.24935C16.1353 9.24935 15.9055 9.34454 15.736 9.514L14.014 11.236C13.8445 11.4055 13.7493 11.6353 13.7493 11.875C13.7493 12.1147 13.8445 12.3445 14.014 12.514L17.8105 16.3105C18.0918 16.5917 18.2499 16.9732 18.25 17.371V18.625Z" stroke="white" stroke-width="1.5" stroke-linecap="round" stroke-linejoin="round"/>
</svg>
